<svg xmlns="http://www.w3.org/2000/svg" xmlns:xlink="http://www.w3.org/1999/xlink" version="1.1" width="256" height="256" viewBox="0 0 256 256" xml:space="preserve">

<defs>
</defs>
<g style="stroke: none; stroke-width: 0; stroke-dasharray: none; stroke-linecap: butt; stroke-linejoin: miter; stroke-miterlimit: 10; fill: none; fill-rule: nonzero; opacity: 1;" transform="translate(1.4065934065934016 1.4065934065934016) scale(2.81 2.81)" >
	<path d="M 54.567 21.81 c -1.381 0 -2.5 -1.119 -2.5 -2.5 c 0 -1.381 1.119 -2.5 2.5 -2.5 c 1.381 0 2.5 1.119 2.5 2.5 C 57.065 20.69 55.947 21.808 54.567 21.81" style="stroke: none; stroke-width: 1; stroke-dasharray: none; stroke-linecap: butt; stroke-linejoin: miter; stroke-miterlimit: 10; fill: rgb(0,0,0); fill-rule: nonzero; opacity: 1;" transform=" matrix(1 0 0 1 0 0) " stroke-linecap="round" />
	<path d="M 35.434 21.81 c -1.381 0 -2.5 -1.119 -2.5 -2.5 s 1.119 -2.5 2.5 -2.5 c 1.381 0 2.5 1.119 2.5 2.5 C 37.932 20.69 36.814 21.808 35.434 21.81" style="stroke: none; stroke-width: 1; stroke-dasharray: none; stroke-linecap: butt; stroke-linejoin: miter; stroke-miterlimit: 10; fill: rgb(0,0,0); fill-rule: nonzero; opacity: 1;" transform=" matrix(1 0 0 1 0 0) " stroke-linecap="round" />
	<path d="M 17.164 65.136 c -4.045 0 -7.337 -3.292 -7.337 -7.338 V 37.941 c 0 -6.714 5.462 -12.177 12.177 -12.177 c 1.377 0 2.497 1.12 2.497 2.497 v 29.536 C 24.501 61.844 21.209 65.136 17.164 65.136 z M 20.501 29.903 c -3.793 0.708 -6.674 4.042 -6.674 8.038 v 19.856 c 0 1.841 1.497 3.338 3.337 3.338 s 3.337 -1.497 3.337 -3.338 V 29.903 z" style="stroke: none; stroke-width: 1; stroke-dasharray: none; stroke-linecap: butt; stroke-linejoin: miter; stroke-miterlimit: 10; fill: rgb(0,0,0); fill-rule: nonzero; opacity: 1;" transform=" matrix(1 0 0 1 0 0) " stroke-linecap="round" />
	<path d="M 72.836 65.136 c -4.046 0 -7.337 -3.292 -7.337 -7.338 V 28.262 c 0 -1.377 1.12 -2.497 2.497 -2.497 c 6.714 0 12.177 5.462 12.177 12.177 v 19.856 C 80.173 61.844 76.882 65.136 72.836 65.136 z M 69.499 29.903 v 27.895 c 0 1.841 1.497 3.338 3.337 3.338 s 3.337 -1.497 3.337 -3.338 V 37.941 C 76.173 33.946 73.292 30.611 69.499 29.903 z" style="stroke: none; stroke-width: 1; stroke-dasharray: none; stroke-linecap: butt; stroke-linejoin: miter; stroke-miterlimit: 10; fill: rgb(0,0,0); fill-rule: nonzero; opacity: 1;" transform=" matrix(1 0 0 1 0 0) " stroke-linecap="round" />
	<path d="M 54.016 90 c -4.046 0 -7.337 -3.291 -7.337 -7.337 V 70.577 h -3.357 v 12.086 c 0 4.046 -3.292 7.337 -7.337 7.337 s -7.337 -3.291 -7.337 -7.337 V 70.179 c -4.751 -1.298 -8.146 -5.622 -8.146 -10.706 V 27.765 c 0 -1.104 0.896 -2 2 -2 h 44.998 c 1.104 0 2 0.896 2 2 v 31.708 c 0 5.084 -3.396 9.408 -8.146 10.706 v 12.484 C 61.353 86.709 58.062 90 54.016 90 z M 41.321 66.577 h 7.357 c 1.104 0 2 0.896 2 2 v 14.086 c 0 1.84 1.497 3.337 3.337 3.337 s 3.337 -1.497 3.337 -3.337 V 68.525 c 0 -1.024 0.773 -1.883 1.792 -1.989 c 3.623 -0.379 6.354 -3.415 6.354 -7.063 V 29.765 H 24.501 v 29.708 c 0 3.648 2.732 6.685 6.354 7.063 c 1.019 0.106 1.792 0.965 1.792 1.989 v 14.138 c 0 1.84 1.497 3.337 3.337 3.337 s 3.337 -1.497 3.337 -3.337 V 68.577 C 39.321 67.473 40.217 66.577 41.321 66.577 z" style="stroke: none; stroke-width: 1; stroke-dasharray: none; stroke-linecap: butt; stroke-linejoin: miter; stroke-miterlimit: 10; fill: rgb(0,0,0); fill-rule: nonzero; opacity: 1;" transform=" matrix(1 0 0 1 0 0) " stroke-linecap="round" />
	<path d="M 55.626 11.242 c -0.338 0 -0.68 -0.086 -0.993 -0.266 c -0.958 -0.55 -1.289 -1.772 -0.739 -2.73 l 4.155 -7.241 c 0.549 -0.958 1.772 -1.288 2.729 -0.739 c 0.958 0.55 1.289 1.772 0.739 2.73 l -4.155 7.241 C 56.993 10.881 56.319 11.242 55.626 11.242 z" style="stroke: none; stroke-width: 1; stroke-dasharray: none; stroke-linecap: butt; stroke-linejoin: miter; stroke-miterlimit: 10; fill: rgb(0,0,0); fill-rule: nonzero; opacity: 1;" transform=" matrix(1 0 0 1 0 0) " stroke-linecap="round" />
	<path d="M 34.375 11.242 c -0.693 0 -1.367 -0.361 -1.737 -1.005 l -4.155 -7.242 c -0.55 -0.958 -0.219 -2.18 0.74 -2.73 c 0.958 -0.549 2.181 -0.218 2.73 0.74 l 4.155 7.242 c 0.55 0.958 0.219 2.18 -0.74 2.73 C 35.054 11.156 34.712 11.242 34.375 11.242 z" style="stroke: none; stroke-width: 1; stroke-dasharray: none; stroke-linecap: butt; stroke-linejoin: miter; stroke-miterlimit: 10; fill: rgb(0,0,0); fill-rule: nonzero; opacity: 1;" transform=" matrix(1 0 0 1 0 0) " stroke-linecap="round" />
	<path d="M 67.499 29.765 H 22.501 c -0.551 0 -1.078 -0.228 -1.456 -0.628 c -0.378 -0.401 -0.574 -0.94 -0.541 -1.491 C 21.276 14.713 32.036 4.583 45 4.583 s 23.724 10.13 24.495 23.062 c 0.033 0.55 -0.162 1.089 -0.54 1.491 C 68.577 29.537 68.05 29.765 67.499 29.765 z M 24.734 25.765 h 40.532 C 63.655 15.975 55.132 8.583 45 8.583 S 26.345 15.975 24.734 25.765 z" style="stroke: none; stroke-width: 1; stroke-dasharray: none; stroke-linecap: butt; stroke-linejoin: miter; stroke-miterlimit: 10; fill: rgb(0,0,0); fill-rule: nonzero; opacity: 1;" transform=" matrix(1 0 0 1 0 0) " stroke-linecap="round" />
</g>
</svg>