<svg xmlns="http://www.w3.org/2000/svg" xmlns:xlink="http://www.w3.org/1999/xlink" version="1.1" width="256" height="256" viewBox="0 0 256 256" xml:space="preserve">

<defs>
</defs>
<g style="stroke: none; stroke-width: 0; stroke-dasharray: none; stroke-linecap: butt; stroke-linejoin: miter; stroke-miterlimit: 10; fill: none; fill-rule: nonzero; opacity: 1;" transform="translate(1.4065934065934016 1.4065934065934016) scale(2.81 2.81)" >
	<path d="M 33.668 84.632 c -0.712 0 -1.423 -0.141 -2.1 -0.421 c -1.356 -0.562 -2.411 -1.618 -2.971 -2.973 c -0.062 -0.148 -0.251 -0.605 -0.909 -0.605 c -0.657 0 -0.846 0.457 -0.908 0.606 c -1.161 2.797 -4.376 4.13 -7.172 2.972 l -5.486 -2.272 c -1.353 -0.561 -2.409 -1.615 -2.97 -2.971 c -0.562 -1.353 -0.562 -2.845 -0.001 -4.2 c 0.063 -0.151 0.252 -0.609 -0.212 -1.074 c -0.308 -0.308 -0.668 -0.379 -1.071 -0.213 c -2.795 1.158 -6.013 -0.174 -7.173 -2.969 l -2.273 -5.487 c -0.562 -1.354 -0.562 -2.848 0 -4.202 c 0.562 -1.355 1.617 -2.41 2.972 -2.97 C 3.795 57.686 4 57.381 3.999 56.945 c 0 -0.659 -0.457 -0.849 -0.607 -0.911 H 3.389 c -2.794 -1.159 -4.126 -4.376 -2.969 -7.171 l 2.273 -5.486 c 1.159 -2.794 4.376 -4.126 7.169 -2.972 c 0.153 0.063 0.61 0.253 1.077 -0.213 c 0.308 -0.308 0.379 -0.668 0.212 -1.071 c -1.158 -2.795 0.174 -6.012 2.968 -7.171 l 5.489 -2.273 c 2.796 -1.157 6.012 0.176 7.17 2.968 c 0.063 0.152 0.252 0.61 0.91 0.61 c 0.658 0 0.848 -0.458 0.91 -0.608 c 0.56 -1.354 1.615 -2.409 2.971 -2.97 c 1.339 -0.556 2.855 -0.557 4.2 0 l 5.486 2.272 c 2.797 1.16 4.129 4.377 2.971 7.172 c -0.062 0.15 -0.251 0.607 0.213 1.072 c 0.309 0.308 0.67 0.382 1.074 0.213 c 1.354 -0.561 2.845 -0.56 4.2 0 s 2.41 1.616 2.971 2.972 l 2.272 5.484 c 1.158 2.795 -0.174 6.012 -2.969 7.172 c -0.151 0.063 -0.609 0.252 -0.609 0.909 c 0 0.658 0.457 0.848 0.607 0.91 c 1.354 0.561 2.41 1.616 2.971 2.971 c 0.562 1.355 0.561 2.847 0 4.201 l -2.272 5.485 c -0.561 1.353 -1.615 2.409 -2.971 2.971 c -1.353 0.561 -2.846 0.561 -4.201 0 c -0.152 -0.062 -0.607 -0.253 -1.072 0.212 c -0.466 0.467 -0.276 0.925 -0.214 1.075 c 0.562 1.353 0.561 2.846 0 4.2 c -0.562 1.355 -1.617 2.41 -2.972 2.971 l -5.483 2.272 C 35.092 84.491 34.38 84.632 33.668 84.632 z M 27.688 76.633 c 1.61 0 3.665 0.808 4.605 3.075 c 0.155 0.374 0.434 0.653 0.808 0.808 c 0.372 0.154 0.766 0.155 1.14 -0.001 l 5.483 -2.271 c 0.374 -0.154 0.652 -0.434 0.807 -0.807 c 0.154 -0.372 0.154 -0.767 0 -1.139 c -0.939 -2.268 -0.058 -4.293 1.08 -5.431 c 1.137 -1.141 3.162 -2.023 5.432 -1.081 c 0.371 0.154 0.766 0.154 1.14 0 c 0.373 -0.154 0.652 -0.434 0.807 -0.806 l 2.272 -5.486 c 0.154 -0.372 0.154 -0.767 0 -1.141 c -0.154 -0.372 -0.433 -0.65 -0.806 -0.805 c -2.268 -0.939 -3.077 -2.995 -3.077 -4.605 s 0.809 -3.665 3.078 -4.604 c 0.757 -0.314 1.119 -1.187 0.805 -1.945 l -2.272 -5.485 c -0.154 -0.374 -0.433 -0.652 -0.806 -0.806 c -0.373 -0.155 -0.767 -0.155 -1.14 0 c -2.268 0.937 -4.295 0.057 -5.432 -1.081 c -1.139 -1.138 -2.02 -3.163 -1.081 -5.431 c 0.314 -0.758 -0.047 -1.631 -0.807 -1.946 l -5.485 -2.272 c -0.368 -0.152 -0.771 -0.152 -1.138 0 c -0.375 0.155 -0.653 0.433 -0.807 0.805 c -0.94 2.269 -2.996 3.078 -4.605 3.078 c -1.61 0 -3.666 -0.809 -4.605 -3.078 c -0.315 -0.757 -1.189 -1.117 -1.946 -0.804 l -5.486 2.272 c -0.757 0.314 -1.118 1.187 -0.804 1.946 c 0.94 2.27 0.058 4.294 -1.082 5.432 c -1.139 1.138 -3.165 2.019 -5.432 1.08 c -0.756 -0.312 -1.63 0.049 -1.946 0.808 l -2.272 5.484 c -0.314 0.758 0.047 1.631 0.806 1.945 c 2.269 0.939 3.078 2.994 3.078 4.604 C 8 58.551 7.193 60.608 4.923 61.548 c -0.374 0.154 -0.652 0.434 -0.807 0.807 c -0.154 0.372 -0.154 0.766 0 1.139 l 2.272 5.486 c 0.315 0.758 1.188 1.121 1.947 0.806 c 2.27 -0.942 4.296 -0.059 5.433 1.082 c 1.136 1.137 2.018 3.161 1.078 5.431 c -0.154 0.372 -0.154 0.766 0 1.138 c 0.155 0.374 0.434 0.653 0.806 0.808 l 5.486 2.272 c 0.755 0.312 1.63 -0.049 1.946 -0.808 C 24.023 77.442 26.078 76.633 27.688 76.633 z" style="stroke: none; stroke-width: 1; stroke-dasharray: none; stroke-linecap: butt; stroke-linejoin: miter; stroke-miterlimit: 10; fill: rgb(0,0,0); fill-rule: nonzero; opacity: 1;" transform=" matrix(1 0 0 1 0 0) " stroke-linecap="round" />
	<path d="M 27.688 69.398 c -6.867 0 -12.454 -5.587 -12.454 -12.455 c 0 -6.867 5.587 -12.454 12.454 -12.454 s 12.454 5.587 12.454 12.454 C 40.142 63.811 34.555 69.398 27.688 69.398 z M 27.688 48.489 c -4.662 0 -8.454 3.793 -8.454 8.454 c 0 4.662 3.792 8.455 8.454 8.455 s 8.454 -3.793 8.454 -8.455 C 36.142 52.282 32.35 48.489 27.688 48.489 z" style="stroke: none; stroke-width: 1; stroke-dasharray: none; stroke-linecap: butt; stroke-linejoin: miter; stroke-miterlimit: 10; fill: rgb(0,0,0); fill-rule: nonzero; opacity: 1;" transform=" matrix(1 0 0 1 0 0) " stroke-linecap="round" />
	<path d="M 72.091 45.512 c -0.578 0 -1.156 -0.114 -1.706 -0.342 c -1.098 -0.455 -1.953 -1.311 -2.408 -2.411 l -0.096 -0.061 l -0.089 0.063 c -0.941 2.267 -3.552 3.347 -5.818 2.41 l -3.86 -1.599 c -1.099 -0.455 -1.954 -1.311 -2.41 -2.411 c -0.455 -1.097 -0.456 -2.307 -0.002 -3.406 l -0.021 -0.112 l -0.106 -0.021 c -2.268 0.941 -4.879 -0.141 -5.819 -2.408 l -1.6 -3.862 c -0.456 -1.1 -0.455 -2.31 0 -3.409 c 0.456 -1.1 1.311 -1.956 2.411 -2.411 l 0.061 -0.096 l 0.704 -1.935 l -0.766 1.847 c -2.268 -0.938 -3.35 -3.549 -2.412 -5.818 l 1.6 -3.861 c 0.942 -2.266 3.553 -3.347 5.818 -2.412 l 0.111 -0.021 l 1.869 -0.873 l -1.848 0.767 c -0.455 -1.099 -0.455 -2.309 0 -3.409 s 1.311 -1.956 2.409 -2.412 l 3.86 -1.599 c 2.268 -0.937 4.878 0.144 5.819 2.409 l 0.096 0.063 l 0.089 -0.062 c 0.455 -1.099 1.311 -1.955 2.41 -2.41 c 1.089 -0.451 2.317 -0.451 3.408 -0.001 l 3.861 1.6 c 2.268 0.941 3.35 3.552 2.41 5.82 l 0.025 0.112 l 0.87 1.866 l -0.765 -1.848 c 1.098 -0.454 2.309 -0.454 3.408 0 c 1.1 0.456 1.956 1.312 2.411 2.412 l 1.599 3.858 c 0.939 2.269 -0.142 4.879 -2.41 5.82 l -0.063 0.096 l -0.704 1.936 l 0.764 -1.849 c 1.101 0.455 1.958 1.311 2.413 2.413 c 0.455 1.098 0.456 2.309 0 3.409 l -1.599 3.859 c -0.456 1.099 -1.311 1.955 -2.41 2.411 c -1.102 0.455 -2.311 0.455 -3.409 0 l -0.11 0.022 l -1.868 0.873 l 1.848 -0.766 c 0.455 1.099 0.456 2.31 0 3.409 c -0.456 1.101 -1.312 1.957 -2.413 2.412 l -3.856 1.598 C 73.246 45.398 72.668 45.512 72.091 45.512 z M 67.884 38.698 c 1.324 0 3.016 0.665 3.788 2.53 c 0.048 0.116 0.131 0.199 0.246 0.247 c 0.117 0.049 0.234 0.048 0.35 0 l 3.856 -1.598 c 0.117 -0.048 0.199 -0.131 0.247 -0.246 c 0.048 -0.116 0.048 -0.232 0 -0.348 c -0.772 -1.866 -0.048 -3.532 0.889 -4.468 c 0.936 -0.937 2.604 -1.662 4.468 -0.889 c 0.117 0.048 0.234 0.047 0.35 -0.001 c 0.113 -0.047 0.196 -0.13 0.244 -0.246 l 1.599 -3.858 c 0.048 -0.115 0.048 -0.232 0 -0.348 c -0.048 -0.116 -0.13 -0.198 -0.245 -0.246 c -1.867 -0.774 -2.532 -2.464 -2.532 -3.788 s 0.665 -3.014 2.531 -3.788 c 0.228 -0.094 0.34 -0.366 0.246 -0.593 L 82.321 17.2 c -0.048 -0.116 -0.131 -0.199 -0.246 -0.247 c -0.113 -0.046 -0.229 -0.049 -0.349 0 c -1.872 0.774 -3.533 0.046 -4.469 -0.891 c -0.935 -0.937 -1.659 -2.602 -0.887 -4.466 c 0.096 -0.232 -0.015 -0.499 -0.247 -0.595 l -3.858 -1.599 c -0.111 -0.046 -0.234 -0.047 -0.348 0 c -0.115 0.048 -0.198 0.131 -0.246 0.246 c -0.772 1.866 -2.463 2.531 -3.787 2.531 c -1.323 0 -3.014 -0.665 -3.788 -2.531 c -0.096 -0.23 -0.363 -0.343 -0.595 -0.245 l -3.858 1.598 c -0.143 0.059 -0.212 0.166 -0.244 0.246 c -0.033 0.08 -0.061 0.205 -0.001 0.346 c 0.772 1.87 0.046 3.535 -0.891 4.47 c -0.934 0.935 -2.598 1.663 -4.468 0.886 c -0.232 -0.096 -0.497 0.017 -0.594 0.25 l -1.598 3.857 c -0.096 0.23 0.015 0.498 0.245 0.593 h 0.001 c 1.866 0.773 2.531 2.463 2.531 3.788 s -0.665 3.015 -2.53 3.788 c -0.115 0.048 -0.198 0.13 -0.246 0.246 c -0.048 0.116 -0.048 0.232 0 0.348 l 1.599 3.86 c 0.096 0.23 0.361 0.342 0.594 0.245 c 1.872 -0.776 3.536 -0.047 4.472 0.893 c 0.932 0.927 1.658 2.593 0.884 4.463 c -0.047 0.114 -0.047 0.232 0.001 0.348 c 0.048 0.116 0.131 0.199 0.245 0.246 l 3.86 1.599 c 0.228 0.095 0.498 -0.016 0.595 -0.249 C 64.871 39.363 66.561 38.698 67.884 38.698 z" style="stroke: none; stroke-width: 1; stroke-dasharray: none; stroke-linecap: butt; stroke-linejoin: miter; stroke-miterlimit: 10; fill: rgb(0,0,0); fill-rule: nonzero; opacity: 1;" transform=" matrix(1 0 0 1 0 0) " stroke-linecap="round" />
	<path d="M 67.885 34.794 c -5.158 0 -9.354 -4.196 -9.354 -9.354 s 4.196 -9.354 9.354 -9.354 c 5.158 0 9.354 4.196 9.354 9.354 S 73.043 34.794 67.885 34.794 z M 67.885 20.086 c -2.952 0 -5.354 2.402 -5.354 5.354 s 2.402 5.354 5.354 5.354 s 5.354 -2.402 5.354 -5.354 S 70.837 20.086 67.885 20.086 z" style="stroke: none; stroke-width: 1; stroke-dasharray: none; stroke-linecap: butt; stroke-linejoin: miter; stroke-miterlimit: 10; fill: rgb(0,0,0); fill-rule: nonzero; opacity: 1;" transform=" matrix(1 0 0 1 0 0) " stroke-linecap="round" />
	<path d="M 77.103 81.242 c -0.509 0 -1.019 -0.101 -1.503 -0.302 c -0.752 -0.312 -1.375 -0.836 -1.804 -1.507 c -1.008 1.569 -3.029 2.245 -4.808 1.507 l -3.035 -1.257 c -0.968 -0.399 -1.725 -1.155 -2.126 -2.127 c -0.311 -0.752 -0.381 -1.562 -0.21 -2.34 c -1.826 0.397 -3.728 -0.555 -4.466 -2.335 l -1.257 -3.033 c -0.402 -0.971 -0.401 -2.039 0 -3.009 c 0.311 -0.75 0.835 -1.373 1.507 -1.802 c -1.568 -1.007 -2.244 -3.027 -1.508 -4.809 l 1.258 -3.034 c 0.737 -1.78 2.644 -2.733 4.467 -2.335 c -0.396 -1.821 0.554 -3.727 2.333 -4.467 l 3.037 -1.257 c 1.779 -0.739 3.801 -0.063 4.808 1.506 c 0.428 -0.67 1.051 -1.194 1.805 -1.506 c 0.953 -0.397 2.037 -0.398 3.001 -0.003 l 3.038 1.259 c 1.782 0.739 2.733 2.646 2.336 4.467 c 0.776 -0.17 1.59 -0.103 2.342 0.21 c 0.968 0.4 1.723 1.155 2.125 2.125 l 1.257 3.034 c 0.737 1.781 0.062 3.803 -1.507 4.81 c 0.672 0.429 1.196 1.052 1.507 1.804 c 0.401 0.97 0.401 2.037 -0.001 3.008 l -1.256 3.031 c -0.402 0.972 -1.157 1.727 -2.127 2.127 c -0.751 0.312 -1.561 0.384 -2.34 0.21 c 0.172 0.78 0.101 1.591 -0.21 2.341 c -0.401 0.969 -1.157 1.725 -2.127 2.126 l -3.031 1.256 C 78.122 81.142 77.612 81.242 77.103 81.242 z M 73.796 75.03 c 1.18 0 2.685 0.592 3.372 2.253 l 2.94 -1.294 c -0.728 -1.574 -0.079 -3.057 0.758 -3.89 c 0.818 -0.82 2.273 -1.459 3.907 -0.813 l 1.229 -2.968 c -1.623 -0.597 -2.215 -2.102 -2.215 -3.28 c 0 -1.163 0.576 -2.643 2.188 -3.345 l -1.229 -2.968 c -1.575 0.728 -3.057 0.079 -3.889 -0.758 c -0.829 -0.824 -1.478 -2.307 -0.789 -3.972 l -2.927 -1.14 c -0.7 1.612 -2.183 2.189 -3.347 2.189 c -1.163 0 -2.643 -0.576 -3.344 -2.187 l -2.904 1.202 c 0.646 1.639 0.005 3.094 -0.821 3.915 c -0.825 0.828 -2.306 1.479 -3.973 0.788 l -1.14 2.93 c 1.612 0.699 2.189 2.181 2.189 3.345 c 0.004 1.158 -0.569 2.642 -2.187 3.345 l 1.203 2.903 c 1.631 -0.644 3.089 -0.007 3.911 0.817 c 0.822 0.817 1.464 2.272 0.818 3.912 l 2.902 1.202 C 71.152 75.607 72.633 75.03 73.796 75.03 z M 67.523 76.081 C 67.522 76.081 67.522 76.081 67.523 76.081 L 67.523 76.081 z M 60.02 65.362 L 60.02 65.362 l 0.766 -1.848 L 60.02 65.362 z M 77.075 52.831 l -0.001 0.002 l 0.003 -0.001 L 77.075 52.831 z" style="stroke: none; stroke-width: 1; stroke-dasharray: none; stroke-linecap: butt; stroke-linejoin: miter; stroke-miterlimit: 10; fill: rgb(0,0,0); fill-rule: nonzero; opacity: 1;" transform=" matrix(1 0 0 1 0 0) " stroke-linecap="round" />
	<path d="M 73.796 72.819 c -4.289 0 -7.779 -3.49 -7.779 -7.78 c 0 -4.29 3.49 -7.78 7.779 -7.78 c 4.29 0 7.78 3.49 7.78 7.78 C 81.576 69.328 78.086 72.819 73.796 72.819 z M 73.796 61.258 c -2.084 0 -3.779 1.696 -3.779 3.78 c 0 2.084 1.695 3.78 3.779 3.78 s 3.78 -1.696 3.78 -3.78 C 77.576 62.955 75.88 61.258 73.796 61.258 z" style="stroke: none; stroke-width: 1; stroke-dasharray: none; stroke-linecap: butt; stroke-linejoin: miter; stroke-miterlimit: 10; fill: rgb(0,0,0); fill-rule: nonzero; opacity: 1;" transform=" matrix(1 0 0 1 0 0) " stroke-linecap="round" />
</g>
</svg>