
<svg xmlns="http://www.w3.org/2000/svg"
     class="svg-snoweb svg-theme-dark"
     x="0"
     y="0"
     width="100%"
     height="100%"
     viewBox="0 0 100 100"
     preserveAspectRatio="xMidYMid meet"
>
<defs>
    <style>
        
            
            
            
        

        .svg-fill-primary {
            fill: #000;
        }

        .svg-fill-secondary {
            fill: #814CB4;
        }

        .svg-fill-tertiary {
            fill: #663399;
        }

        .svg-stroke-primary {
            stroke: #000;
        }

        .svg-stroke-secondary {
            stroke: #814CB4;
        }

        .svg-stroke-tertiary {
            stroke: #663399;
        }
    </style>
</defs>
    <path d="M68.9,80.2H87.7V72.6a11.3,11.3,0,0,0-20.2-7m1.4,14.6H31.1m37.8,0V72.6a18.6,18.6,0,0,0-1.4-7M31.1,80.2H12.3V72.6a11.3,11.3,0,0,1,20.2-7M31.1,80.2V72.6a18.6,18.6,0,0,1,1.4-7m0,0a18.9,18.9,0,0,1,35,0M61.3,31.1A11.3,11.3,0,1,1,50,19.8,11.4,11.4,0,0,1,61.3,31.1ZM83.9,42.5a7.5,7.5,0,1,1-7.5-7.6A7.5,7.5,0,0,1,83.9,42.5Zm-52.8,0a7.5,7.5,0,1,1-7.5-7.6A7.5,7.5,0,0,1,31.1,42.5Z"
      fill="none" class="svg-stroke-primary" stroke-linecap="round" stroke-linejoin="round" stroke-width="8"/>

</svg>